<svg xmlns="http://www.w3.org/2000/svg" id="svg2" version="1.1" viewBox="0 0 390.46667 144.41333">
    <defs id="defs6">
        <clipPath id="clipPath24" clipPathUnits="userSpaceOnUse">
            <path id="path22" d="M75.4922 448.563H2865.07v365.175H75.4922Z"/>
        </clipPath>
    </defs>
    <g id="g8" transform="matrix(1.3333333 0 0 -1.3333333 0 144.41333)">
        <g id="g10" transform="scale(.1)">
            <g id="g12" transform="scale(10)">
                <g id="text16" aria-label="where the music is" style="font-size:16px;font-family:Poppins;-inkscape-font-specification:Poppins-Regular;fill:#231f20" transform="matrix(1 0 0 -1 6.33984 27.0828)">
                    <path id="path38" d="M.671875-8.75h1.4375L3.90625-1.921875 5.6953125-8.75H7.390625L9.1875-1.921875 10.976563-8.75h1.4375L10.125 0H8.4296875L6.546875-7.171875 4.65625 0H2.9609375Z"/>
                    <path id="path40" d="M21.90125-5.28125V0h-1.4375v-5.234375q0-1.2421875-.484375-1.859375t-1.453125-.6171875q-1.164063 0-1.835938.7421875t-.671875 2.0234375V0h-1.445312v-12.15625h1.445312v4.765625q.515625-.7890625 1.210938-1.1796875.703125-.390625 1.617187-.390625 1.507813 0 2.28125.9375.773438.9296875.773438 2.7421875z"/>
                    <path id="path42" d="M32.352188-4.734375v.703125h-6.609375q.09375 1.484375.890625 2.265625.804688.7734375 2.234375.7734375.828125 0 1.601563-.203125.78125-.203125 1.546875-.609375v1.359375q-.773438.328125-1.585938.5-.8125.171875-1.648437.171875-2.09375 0-3.320313-1.21875-1.21875-1.21875-1.21875-3.296875 0-2.1484375 1.15625-3.40625 1.164063-1.265625 3.132813-1.265625 1.765625 0 2.789062 1.140625 1.03125 1.1328125 1.03125 3.0859375zm-1.4375-.421875q-.01563-1.1796875-.664062-1.8828125-.640625-.703125-1.703125-.703125-1.203125 0-1.929688.6796875-.71875.6796875-.828125 1.9140625z"/>
                    <path id="path44" d="M39.858124-7.40625q-.242188-.140625-.53125-.203125-.28125-.070312-.625-.070312-1.21875 0-1.875.796875-.648438.7890625-.648438 2.2734375V0h-1.445312v-8.75h1.445312v1.359375q.453125-.796875 1.179688-1.1796875.726562-.390625 1.765625-.390625.148437 0 .328125.023437.179687.015625.398437.054687z"/>
                    <path id="path46" d="M48.240189-4.734375v.703125h-6.609375q.09375 1.484375.890625 2.265625.804687.7734375 2.234375.7734375.828125 0 1.601562-.203125.78125-.203125 1.546875-.609375v1.359375q-.773437.328125-1.585937.5-.8125.171875-1.648438.171875-2.09375 0-3.320312-1.21875-1.21875-1.21875-1.21875-3.296875 0-2.1484375 1.15625-3.40625 1.164062-1.265625 3.132812-1.265625 1.765625 0 2.789063 1.140625 1.03125 1.1328125 1.03125 3.0859375zm-1.4375-.421875q-.01563-1.1796875-.664063-1.8828125-.640625-.703125-1.703125-.703125-1.203125 0-1.929687.6796875-.71875.6796875-.828125 1.9140625z"/>
                    <path id="path48" d="M56.369686-11.234375V-8.75h2.960938v1.1171875h-2.960938v4.75q0 1.0703125.289063 1.375.296875.3046875 1.195312.3046875h1.476563V0h-1.476563q-1.664062 0-2.296875-.6171875-.632812-.625-.632812-2.265625v-4.75h-1.054688V-8.75h1.054688v-2.484375z"/>
                    <path id="path50" d="M68.04525-5.28125V0h-1.4375v-5.234375q0-1.2421875-.484375-1.859375t-1.453125-.6171875q-1.164063 0-1.835938.7421875t-.671875 2.0234375V0h-1.445312v-12.15625h1.445312v4.765625q.515625-.7890625 1.210938-1.1796875.703125-.390625 1.617187-.390625 1.507813 0 2.28125.9375.773438.9296875.773438 2.7421875z"/>
                    <path id="path52" d="M78.496185-4.734375v.703125H71.88681q.09375 1.484375.890625 2.265625.804688.7734375 2.234375.7734375.828125 0 1.601563-.203125.78125-.203125 1.546875-.609375v1.359375q-.773438.328125-1.585938.5-.8125.171875-1.648437.171875-2.09375 0-3.320313-1.21875-1.21875-1.21875-1.21875-3.296875 0-2.1484375 1.15625-3.40625 1.164063-1.265625 3.132813-1.265625 1.765625 0 2.789062 1.140625 1.03125 1.1328125 1.03125 3.0859375zm-1.4375-.421875q-.01563-1.1796875-.664062-1.8828125-.640625-.703125-1.703125-.703125-1.203125 0-1.929688.6796875-.71875.6796875-.828125 1.9140625z"/>
                    <path id="path54" d="M92.016312-7.0703125q.539062-.96875 1.289062-1.4296875.75-.4609375 1.765625-.4609375 1.367188 0 2.109375.9609375.742188.953125.742188 2.71875V0h-1.445313v-5.234375q0-1.2578125-.445312-1.8671875-.445313-.609375-1.359375-.609375-1.117188 0-1.765625.7421875-.648438.7421875-.648438 2.0234375V0h-1.445312v-5.234375q0-1.265625-.445313-1.8671875-.445312-.609375-1.375-.609375-1.101562 0-1.75.75-.648437.7421875-.648437 2.015625V0h-1.445313v-8.75h1.445313v1.359375q.492187-.8046875 1.179687-1.1875t1.632813-.3828125q.953125 0 1.617187.484375.671875.484375.992188 1.40625z"/>
                    <path id="path56" d="M101.53538-3.453125V-8.75h1.4375v5.2421875q0 1.2421875.48437 1.8671875.48438.6171875 1.45313.6171875 1.16406 0 1.83594-.7421875.67968-.7421875.67968-2.0234375V-8.75h1.4375V0h-1.4375v-1.34375q-.52343.796875-1.21875 1.1875-.6875.3828125-1.60156.3828125-1.50781 0-2.28906-.9375t-.78125-2.7421875zm3.61719-5.5078125z"/>
                    <path id="path58" d="M117.50194-8.4921875v1.359375q-.60938-.3125-1.26563-.46875t-1.35937-.15625q-1.07031 0-1.60938.328125-.53125.328125-.53125.984375 0 .5.38282.7890625.38281.28125 1.53906.5390625l.49219.109375q1.53125.328125 2.17187.9296875.64844.59375.64844 1.6640625 0 1.21875-.96875 1.9296875-.96094.7109375-2.64844.7109375-.70312 0-1.46875-.140625-.75781-.1328125-1.60156-.40625v-1.484375q.79687.4140625 1.57031.625.77344.203125 1.53125.203125 1.01563 0 1.5625-.34375.54688-.3515625.54688-.984375 0-.5859375-.39844-.8984375-.39063-.3125-1.72656-.6015625l-.5-.1171875q-1.33594-.28125-1.92969-.859375-.59375-.5859375-.59375-1.6015625 0-1.234375.875-1.90625t2.48437-.671875q.79688 0 1.5.1171875.70313.1171875 1.29688.3515625z"/>
                    <path id="path60" d="M120.27581-8.75h1.4375V0h-1.4375zm0-3.40625h1.4375v1.820312h-1.4375z"/>
                    <path id="path62" d="M130.50869-8.4140625v1.34375q-.60938-.3359375-1.22656-.5-.60938-.171875-1.23438-.171875-1.39844 0-2.17187.890625-.77344.8828125-.77344 2.484375T125.87588-1.875q.77343.8828125 2.17187.8828125.625 0 1.23438-.1640625.61718-.171875 1.22656-.5078125v1.328125q-.60156.28125-1.25.421875-.64063.140625-1.36719.140625-1.97656 0-3.14062-1.2421875-1.16407-1.2421875-1.16407-3.3515625 0-2.140625 1.17188-3.3671875 1.17969-1.2265625 3.22656-1.2265625.66406 0 1.29688.140625.63281.1328125 1.22656.40625z"/>
                    <path id="path64" d="M138.19582-8.75h1.4375V0h-1.4375zm0-3.40625h1.4375v1.820312h-1.4375z"/>
                    <path id="path66" d="M147.70993-8.4921875v1.359375q-.60937-.3125-1.26562-.46875t-1.35938-.15625q-1.07031 0-1.60937.328125-.53125.328125-.53125.984375 0 .5.38281.7890625.38281.28125 1.53906.5390625l.49219.109375q1.53125.328125 2.17187.9296875.64844.59375.64844 1.6640625 0 1.21875-.96875 1.9296875-.96094.7109375-2.64844.7109375-.70312 0-1.46875-.140625-.75781-.1328125-1.60156-.40625v-1.484375q.79688.4140625 1.57031.625.77344.203125 1.53125.203125 1.01563 0 1.5625-.34375.54688-.3515625.54688-.984375 0-.5859375-.39844-.8984375-.39062-.3125-1.72656-.6015625l-.5-.1171875q-1.33594-.28125-1.92969-.859375-.59375-.5859375-.59375-1.6015625 0-1.234375.875-1.90625t2.48438-.671875q.79687 0 1.5.1171875.70312.1171875 1.29687.3515625z"/>
                </g>
            </g>
            <g id="g18">
                <g id="g20" clip-path="url(#clipPath24)">
                    <path id="path26" d="M1656.28 679.273c0-12.562 15.64-22.128 46.93-28.687 23.52-4.918 40.5-12.293 50.93-22.133 10.43-9.832 15.65-23.359 15.65-40.57 0-9.57-1.81-18.442-5.43-26.641-3.6-8.195-8.75-15.367-15.43-21.515-6.68-6.149-14.9-10.922-24.66-14.344-10.68-3.563-21.86-5.289-33.09-5.121-12.58 0-23.72 1.699-33.49 5.121-9.19 3.113-17.85 7.68-25.67 13.523-7.25 5.5-13.67 12.059-19.05 19.465-5.18 7.086-9.5 14.793-12.83 22.953l40.5 26.231c4.27-12.848 10.69-23.36 19.26-31.559 8.56-8.195 19.25-12.293 32.08-12.293 7.52-.062 14.92 1.914 21.46 5.738 6.56 3.829 9.82 9.426 9.82 16.801 0 6.824-3.4 12.153-10.22 15.985-6.83 3.828-17.59 7.234-32.29 10.242-9.31 1.82-18.44 4.496-27.27 7.996-7.98 3.074-15.43 7.43-22.06 12.906-6.02 5.027-10.99 11.227-14.64 18.238-3.61 6.965-5.41 15.102-5.41 24.383 0 9.571 2.07 18.035 6.21 25.41 4.15 7.375 9.62 13.524 16.45 18.442 6.82 4.918 14.69 8.668 23.66 11.269 9.06 2.614 18.45 3.922 27.87 3.895 21.66 0 38.76-4.242 51.34-12.703 12.57-8.461 22.86-21.313 30.87-38.528l-36.49-22.129c-4.27 11.211-10.28 19.942-18.05 26.231-7.61 6.234-17.11 9.566-26.87 9.426-8.27 0-15.38-1.434-21.25-4.301-5.88-2.871-8.83-7.441-8.83-13.731m133.96 49.997h30.88v54.921h50.53V729.27h43.31v-41.801h-43.31v-92.625c0-10.387 2.27-17.762 6.82-22.129 4.55-4.36 10.68-6.555 18.45-6.555 3.75 0 6.95.266 9.62.82 2.67.551 5.08 1.086 7.22 1.637l4.82-42.617c-4.56-1.641-9.83-3.016-15.84-4.098-6.03-1.086-11.98-1.64-17.85-1.64-8.57 0-16.71 1.023-24.47 3.07-7.76 2.051-14.58 5.531-20.46 10.453-6.17 5.332-10.93 12.164-13.83 19.875-3.35 8.34-5.01 18.789-5.01 31.352v102.457h-30.88zm197.32-113.93c1.61-15.574 7.36-27.93 17.25-37.094 9.88-9.152 22.32-13.726 37.29-13.726 13.89 0 25.12 3.339 33.69 10.039 8.56 6.703 15.64 15.781 21.25 27.254l37.7-22.129c-9.37-19.938-21.59-34.836-36.69-44.668-15.1-9.84-34.03-14.754-56.75-14.754-13.48-.086-26.84 2.562-39.3 7.785-12.13 5.074-23.17 12.519-32.49 21.926-9.52 9.668-17.08 21.156-22.26 33.808-5.47 13.117-8.22 27.727-8.22 43.856 0 16.125 2.75 30.73 8.22 43.851 5.48 13.114 12.98 24.383 22.46 33.809 9.58 9.476 20.89 16.93 33.29 21.922 12.95 5.246 26.77 7.886 40.7 7.789 13.4.152 26.7-2.426 39.11-7.582 11.53-4.805 21.98-11.988 30.68-21.106 8.57-9.015 15.24-19.73 20.05-32.172 4.81-12.433 7.22-26.023 7.22-40.777V615.34Zm54.54 80.328c-13.63 0-25.21-4.098-34.69-12.297-9.48-8.195-16.1-18.297-19.85-30.324h106.68c-2.41 13.113-8.08 23.5-17.04 31.144-8.97 7.641-20.66 11.477-35.1 11.477M2472.03 526h-50.53v125.816c0 12.024-2.41 21.372-7.22 28.071-4.82 6.703-12.83 10.043-24.06 10.043-11.23 0-20.46-4.242-27.68-12.707-7.21-8.461-10.83-21.168-10.83-38.114V526h-50.52v124.992c0 12.297-2.55 21.867-7.63 28.688-5.07 6.824-13.23 10.25-24.46 10.25-9.88 0-18.65-4.242-26.27-12.707-7.62-8.461-11.43-20.903-11.43-37.297V526h-50.53v203.27h50.53v-27.043c7.48 11.738 16.38 20.14 26.67 25.199 9.66 4.902 20.29 7.496 31.09 7.582 14.69 0 26.52-3.07 35.49-9.223 8.96-6.144 15.57-14.687 19.84-25.613 7.22 12.031 16.51 20.844 27.88 26.433 11.05 5.532 23.19 8.403 35.49 8.403 20.86 0 36.76-6.082 47.73-18.238 10.97-12.149 16.44-28.336 16.44-48.563zm165.64 157.777c-5.27 1.95-10.84 2.922-16.44 2.871-7.48 0-14.25-1.496-20.26-4.503-6.01-3.016-11.09-7.239-15.24-12.707-4.14-5.473-7.27-11.887-9.43-19.262-2.13-7.379-3.21-15.309-3.21-23.77V526h-50.52v203.27h50.52v-32.372c5.63 11.735 13.04 21.043 22.26 27.864 9.23 6.824 20.27 10.246 33.09 10.246 6.16 0 11.9-.82 17.25-2.457zM2865.07 526h-50.54v26.227c-5.87-9.836-13.77-17.622-23.66-23.364-9.88-5.734-22.45-8.601-37.7-8.601-13.63 0-26.32 2.398-38.1 7.168-11.6 4.675-22.08 11.875-30.68 21.105-8.96 9.758-15.93 21.254-20.45 33.817-4.96 13.257-7.42 28.339-7.42 45.285 0 16.945 2.74 32.023 8.22 45.281 5.04 12.582 12.4 24.055 21.66 33.812 8.65 9.083 19.02 16.258 30.47 21.11 10.99 4.699 22.79 7.137 34.69 7.168 15.79 0 28.68-2.52 38.71-7.582 10.02-5.059 18.11-12.086 24.26-21.106v22.95h50.54zm-102.27 42.617c8.02 0 15.37 1.438 22.06 4.309 6.68 2.867 12.49 6.961 17.45 12.289 4.95 5.328 8.76 11.539 11.42 18.648 2.67 7.11 4.01 15.02 4.01 23.774 0 8.461-1.34 16.328-4.01 23.558-2.53 7.008-6.41 13.418-11.42 18.856-4.92 5.304-10.86 9.492-17.45 12.297-6.69 2.867-14.04 4.3-22.06 4.3s-15.38-1.433-22.06-4.3c-6.6-2.813-12.53-6.996-17.44-12.297-5.02-5.438-8.9-11.848-11.44-18.856-2.67-7.23-4.01-15.097-4.01-23.558 0-8.754 1.34-16.664 4.01-23.774 2.67-7.109 6.48-13.32 11.44-18.648 4.95-5.328 10.76-9.422 17.44-12.289 6.68-2.871 14.04-4.309 22.06-4.309" style="fill:#231f20;fill-opacity:1;fill-rule:nonzero;stroke:none"/>
                    <path id="path28" d="M75.4922 813.738h50.5348V705.133c7.59 9.648 17.274 17.367 28.274 22.547 11.617 5.515 24.293 8.316 37.101 8.191 13.371 0 25.809-2.398 37.297-7.172 11.406-4.715 21.668-11.922 30.078-21.101 8.864-9.801 15.746-21.289 20.25-33.817 4.957-13.258 7.422-28.34 7.422-45.285 0-16.945-2.547-32.027-7.621-45.285-4.644-12.547-11.66-24.035-20.652-33.809-8.555-9.195-18.949-16.398-30.481-21.105-11.797-4.817-24.398-7.25-37.097-7.172-15.785 0-28.938 3.012-39.504 9.016-10.571 6.004-18.91 13.257-25.067 21.718v-25H75.4922ZM178.965 569.484c8.019 0 15.504 1.438 22.461 4.301 6.746 2.731 12.84 6.926 17.847 12.297 4.954 5.328 8.821 11.539 11.629 18.645 2.809 7.113 4.211 15.023 4.211 23.769 0 8.465-1.402 16.332-4.211 23.567-2.652 6.992-6.601 13.39-11.629 18.855-5.007 5.367-11.101 9.562-17.847 12.293-6.957 2.867-14.442 4.305-22.461 4.305-8.02 0-15.5-1.438-22.457-4.305-6.75-2.731-12.84-6.926-17.852-12.293-5.027-5.465-8.972-11.863-11.625-18.855-2.808-7.235-4.211-15.102-4.211-23.567 0-8.746 1.403-16.656 4.211-23.769 2.805-7.106 6.68-13.317 11.625-18.645 4.957-5.328 10.895-9.426 17.852-12.297 6.957-2.863 14.437-4.301 22.457-4.301m145.988 160.653h50.531V615.793c0-14.754 3.207-26.168 9.621-34.223 6.422-8.05 16.708-12.086 30.883-12.086 14.18 0 25.41 5.184 33.688 15.571 8.285 10.39 12.437 23.769 12.437 40.168v104.914h50.535V526.859h-50.535v31.969c-6.422-12.297-15.043-21.66-25.867-28.07-10.832-6.414-23.32-9.633-37.504-9.633-10.426 0-20.109 1.781-29.07 5.324-8.844 3.477-16.848 8.86-23.469 15.781-6.933 7.383-12.265 16.18-15.637 25.821-3.75 10.246-5.613 22.191-5.613 35.859zM852.34 526.859h-50.535V652.68c0 12.027-2.407 21.375-7.215 28.07-4.817 6.699-12.836 10.047-24.067 10.047-11.226 0-20.453-4.25-27.671-12.711-7.219-8.465-10.829-21.164-10.829-38.109V526.859h-50.535v125c0 12.293-2.543 21.864-7.617 28.688-5.074 6.824-13.238 10.25-24.469 10.25-9.882 0-18.644-4.25-26.265-12.711-7.621-8.465-11.43-20.898-11.43-37.293V526.859h-50.531v203.278h50.531v-27.051c7.477 11.742 16.379 20.144 26.668 25.207 9.664 4.902 20.293 7.492 31.082 7.578 14.703 0 26.527-3.074 35.496-9.219 8.961-6.148 15.578-14.695 19.852-25.617 7.218 12.028 16.504 20.84 27.871 26.438 11.051 5.523 23.191 8.398 35.492 8.398 20.859 0 36.758-6.086 47.73-18.238 10.965-12.149 16.442-28.34 16.442-48.559zm245.04 0h-50.53v26.231c-5.88-9.836-13.77-17.621-23.66-23.36-9.89-5.738-22.46-8.605-37.702-8.605-13.633 0-26.328 2.395-38.097 7.172-11.61 4.672-22.078 11.875-30.684 21.105-8.969 9.75-15.926 21.25-20.449 33.809-4.957 13.258-7.422 28.34-7.422 45.285 0 16.945 2.746 32.027 8.223 45.285 5.043 12.578 12.394 24.055 21.656 33.817 8.652 9.074 19.023 16.257 30.476 21.101 10.993 4.703 22.782 7.145 34.7 7.172 15.777 0 28.679-2.519 38.699-7.578 10.02-5.063 18.1-12.094 24.26-21.109v22.953h50.53zm-102.267 42.625c8.027 0 15.387 1.438 22.057 4.301 6.68 2.871 12.5 6.969 17.45 12.297 4.96 5.328 8.76 11.539 11.43 18.645 2.67 7.113 4.01 15.023 4.01 23.769 0 8.465-1.34 16.332-4.01 23.567-2.53 7.007-6.42 13.417-11.43 18.855-4.91 5.297-10.85 9.488-17.45 12.293-6.67 2.867-14.03 4.305-22.057 4.305-8.019 0-15.379-1.438-22.054-4.305-6.594-2.809-12.536-7-17.446-12.293-5.015-5.438-8.902-11.848-11.429-18.855-2.672-7.235-4.012-15.102-4.012-23.567 0-8.746 1.34-16.656 4.012-23.769 2.668-7.106 6.476-13.317 11.429-18.645 4.95-5.328 10.766-9.426 17.446-12.297 6.675-2.863 14.035-4.301 22.054-4.301" style="fill:#231f20;fill-opacity:1;fill-rule:nonzero;stroke:none"/>
                    <path id="path30" d="M1228.8 656.129c-14.04 0-25.42-11.387-25.42-25.43s11.38-25.433 25.42-25.433c14.05 0 25.43 11.39 25.43 25.433s-11.38 25.43-25.43 25.43" style="fill:#2d3a99;fill-opacity:1;fill-rule:nonzero;stroke:none"/>
                    <path id="path32" d="M1317.89 685c-13.92 0-25.21-11.285-25.21-25.207v-58.191c0-13.918 11.29-25.204 25.21-25.204 13.92 0 25.21 11.286 25.21 25.204v58.191c0 13.922-11.29 25.207-25.21 25.207" style="fill:#2d3a99;fill-opacity:1;fill-rule:nonzero;stroke:none"/>
                    <path id="path34" d="M1406.45 812.84c-13.92 0-25.21-11.285-25.21-25.207V473.77c0-13.926 11.29-25.207 25.21-25.207 13.92 0 25.2 11.281 25.2 25.207v313.863c0 13.922-11.28 25.207-25.2 25.207" style="fill:#2d3a99;fill-opacity:1;fill-rule:nonzero;stroke:none"/>
                    <path id="path36" d="M1495.01 762.586c-13.93 0-25.21-11.285-25.21-25.207V524.02c0-13.922 11.28-25.204 25.21-25.204 13.92 0 25.2 11.282 25.2 25.204v213.359c0 13.922-11.28 25.207-25.2 25.207" style="fill:#2d3a99;fill-opacity:1;fill-rule:nonzero;stroke:none"/>
                </g>
            </g>
        </g>
    </g>
</svg>